<?xml version="1.0" encoding="utf-8"?>
<!-- Generator: Adobe Illustrator 28.3.0, SVG Export Plug-In . SVG Version: 6.00 Build 0)  -->
<svg version="1.1" id="Layer_1" xmlns="http://www.w3.org/2000/svg" xmlns:xlink="http://www.w3.org/1999/xlink" x="0px" y="0px"
	 viewBox="0 0 30 30" style="enable-background:new 0 0 30 30;" xml:space="preserve">
<style type="text/css">
	.st0{fill:#333333;}
</style>
<path class="st0" d="M8.8,0.1C7.2,0.2,6.1,0.4,5.1,0.8c-1,0.4-1.8,0.9-2.7,1.7S1.2,4.2,0.8,5.2c-0.4,1-0.6,2-0.7,3.6
	C0,10.4,0,11,0,15s0,4.6,0.1,6.2c0.1,1.6,0.3,2.7,0.7,3.6c0.4,1,0.9,1.8,1.7,2.7s1.7,1.3,2.7,1.7c1,0.4,2,0.6,3.6,0.7
	C10.4,30,11,30,15,30c4.1,0,4.6,0,6.2-0.1c1.6-0.1,2.7-0.3,3.6-0.7c1-0.4,1.8-0.9,2.7-1.7c0.8-0.8,1.3-1.7,1.7-2.7
	c0.4-1,0.6-2,0.7-3.6C30,19.6,30,19,30,15s0-4.6-0.1-6.2c-0.1-1.6-0.3-2.7-0.7-3.6c-0.4-1-0.9-1.8-1.7-2.7c-0.8-0.8-1.7-1.3-2.7-1.7
	c-1-0.4-2-0.6-3.6-0.7C19.6,0,19,0,15,0S10.4,0,8.8,0.1z M9,27.2c-1.5-0.1-2.3-0.3-2.8-0.5c-0.7-0.3-1.2-0.6-1.7-1.1
	c-0.5-0.5-0.9-1-1.1-1.7c-0.2-0.5-0.5-1.3-0.5-2.8C2.7,19.5,2.7,19,2.7,15s0-4.5,0.1-6.1c0.1-1.5,0.3-2.3,0.5-2.8
	C3.6,5.5,3.9,5,4.4,4.5s1-0.9,1.7-1.1c0.5-0.2,1.3-0.5,2.8-0.5C10.5,2.7,11,2.7,15,2.7c4,0,4.5,0,6.1,0.1c1.5,0.1,2.3,0.3,2.8,0.5
	c0.7,0.3,1.2,0.6,1.7,1.1s0.9,1,1.1,1.7c0.2,0.5,0.5,1.3,0.5,2.8c0.1,1.6,0.1,2.1,0.1,6.1c0,4,0,4.5-0.1,6.1
	c-0.1,1.5-0.3,2.3-0.5,2.8c-0.3,0.7-0.6,1.2-1.1,1.7c-0.5,0.5-1,0.9-1.7,1.1c-0.5,0.2-1.3,0.5-2.8,0.5c-1.6,0.1-2.1,0.1-6.1,0.1
	S10.5,27.3,9,27.2z M21.2,7c0,0.4,0.1,0.7,0.3,1c0.2,0.3,0.5,0.5,0.8,0.7c0.3,0.1,0.7,0.2,1,0.1c0.3-0.1,0.7-0.2,0.9-0.5
	c0.3-0.3,0.4-0.6,0.5-0.9s0-0.7-0.1-1C24.5,6,24.3,5.7,24,5.5c-0.3-0.2-0.6-0.3-1-0.3c-0.5,0-0.9,0.2-1.3,0.5
	C21.4,6,21.2,6.5,21.2,7z M7.3,15c0,4.3,3.5,7.7,7.7,7.7c4.3,0,7.7-3.5,7.7-7.7c0-4.3-3.5-7.7-7.7-7.7S7.3,10.8,7.3,15z M10,15
	c0-1,0.3-2,0.8-2.8c0.5-0.8,1.3-1.5,2.2-1.8C14,10,15,9.9,16,10.1c1,0.2,1.9,0.7,2.6,1.4c0.7,0.7,1.2,1.6,1.4,2.6
	c0.2,1,0.1,2-0.3,2.9c-0.4,0.9-1,1.7-1.8,2.2C17,19.7,16,20,15,20c-0.7,0-1.3-0.1-1.9-0.4c-0.6-0.3-1.2-0.6-1.6-1.1
	c-0.5-0.5-0.8-1-1.1-1.6C10.1,16.3,10,15.7,10,15z"/>
</svg>
