<?xml version="1.0" encoding="utf-8"?>
<!-- Generator: Adobe Illustrator 28.3.0, SVG Export Plug-In . SVG Version: 6.00 Build 0)  -->
<svg version="1.1" id="Layer_1" xmlns="http://www.w3.org/2000/svg" xmlns:xlink="http://www.w3.org/1999/xlink" x="0px" y="0px"
	 viewBox="0 0 30 30" style="enable-background:new 0 0 30 30;" xml:space="preserve">
<style type="text/css">
	.st0{fill:#333333;}
</style>
<g>
	<path class="st0" d="M12.8,16c-0.3-0.2-0.7-0.3-1.3-0.3H8.6V19h2.8c0.2,0,0.5,0,0.7-0.1s0.4-0.1,0.6-0.3c0.2-0.1,0.3-0.3,0.4-0.5
		c0.1-0.2,0.2-0.5,0.2-0.8C13.3,16.7,13.1,16.2,12.8,16z"/>
	<path class="st0" d="M12.4,13.5c0.3-0.2,0.5-0.6,0.5-1.1c0-0.3-0.1-0.5-0.2-0.7c-0.1-0.2-0.2-0.3-0.4-0.4c-0.2-0.1-0.4-0.2-0.6-0.2
		S11.2,11,11,11H8.6v2.8h2.7C11.8,13.9,12.1,13.7,12.4,13.5z"/>
	<path class="st0" d="M15,0C6.7,0,0,6.7,0,15s6.7,15,15,15s15-6.7,15-15S23.3,0,15,0z M18.3,9.6h4.8V11h-4.8V9.6z M15.7,19.1
		c-0.2,0.4-0.5,0.8-0.9,1.1c-0.4,0.3-0.8,0.5-1.4,0.6c-0.5,0.1-1,0.2-1.6,0.2H6V9h5.6c0.6,0,1.1,0.1,1.6,0.2
		c0.5,0.1,0.9,0.3,1.2,0.5s0.6,0.5,0.8,0.9s0.3,0.9,0.3,1.4c0,0.6-0.1,1.1-0.4,1.5c-0.3,0.4-0.7,0.7-1.2,1c0.7,0.2,1.3,0.6,1.6,1.1
		c0.4,0.5,0.5,1.2,0.5,1.9C16,18.1,15.9,18.7,15.7,19.1z M19.4,18.7c0.4,0.3,0.9,0.5,1.5,0.5c0.5,0,0.9-0.1,1.2-0.4
		c0.3-0.2,0.6-0.5,0.6-0.8h2.1c-0.3,1.1-0.8,1.9-1.5,2.3S21.8,21,20.8,21c-0.7,0-1.3-0.1-1.8-0.3s-1-0.5-1.4-0.9s-0.7-0.9-0.9-1.4
		c-0.2-0.6-0.3-1.2-0.3-1.8c0-0.6,0.1-1.3,0.3-1.8c0.2-0.6,0.5-1,0.9-1.5c0.4-0.4,0.9-0.7,1.4-1c0.5-0.2,1.1-0.4,1.8-0.4
		s1.4,0.1,1.9,0.4s1,0.7,1.3,1.2c0.4,0.5,0.6,1,0.8,1.6C25,15.7,25,16.3,25,17h-6.2C18.8,17.8,19,18.3,19.4,18.7z"/>
	<path class="st0" d="M20.7,13.6c-0.4,0-0.7,0.1-0.9,0.2c-0.3,0.1-0.5,0.3-0.6,0.5c-0.2,0.2-0.3,0.4-0.3,0.6
		c-0.1,0.2-0.1,0.4-0.1,0.6h3.9c-0.2-0.6-0.4-1.1-0.7-1.4C21.7,13.8,21.3,13.6,20.7,13.6z"/>
</g>
</svg>
