<?xml version="1.0" encoding="utf-8"?>
<!-- Generator: Adobe Illustrator 26.3.1, SVG Export Plug-In . SVG Version: 6.00 Build 0)  -->
<svg version="1.1" id="Layer_1" xmlns="http://www.w3.org/2000/svg" xmlns:xlink="http://www.w3.org/1999/xlink" x="0px" y="0px"
	 viewBox="0 0 30 30" style="enable-background:new 0 0 30 30;" xml:space="preserve">
<style type="text/css">
	.st0{fill:#FFFFFF;}
</style>
<path class="st0" d="M25,0H5C2.2,0,0,2.2,0,5v20c0,2.8,2.2,5,5,5h20c2.8,0,5-2.2,5-5V5C30,2.2,27.8,0,25,0z M4.3,18.6
	C4.3,18.6,4.3,18.7,4.3,18.6c-0.1,0.1-0.1,0.1-0.1,0L4,17.3L4.1,16C4.1,16,4.2,16,4.2,16s0.1,0,0.1,0.1l0.2,1.3L4.3,18.6z M5.1,19.4
	C5.1,19.4,5.1,19.4,5.1,19.4c-0.1,0.1-0.1,0.1-0.1,0l-0.2-2.1l0.2-2.1L5,15.2c0,0,0.1,0,0.1,0.1l0.3,2.1L5.1,19.4z M6,19.6
	C6,19.7,6,19.8,6,19.8c-0.1,0-0.1-0.1-0.1-0.1l-0.2-2.3l0.2-2.5c0-0.1,0.1-0.1,0.1-0.1C6,14.7,6,14.8,6,14.8l0.2,2.5L6,19.6z
	 M6.9,19.7c0,0.1-0.1,0.1-0.1,0.1s-0.1-0.1-0.1-0.1l-0.2-2.4l0.2-2.6c0.1-0.1,0.1-0.1,0.1-0.1s0.1,0.1,0.1,0.1l0.2,2.6L6.9,19.7z
	 M7.8,19.8c0,0.1-0.1,0.1-0.1,0.1s-0.1-0.1-0.1-0.1l-0.1-2.5L7.5,15c0-0.1,0.1-0.1,0.2-0.1c0.1,0,0.1,0.1,0.1,0.1l0.2,2.3L7.8,19.8z
	 M8.7,19.8c0,0.1-0.1,0.1-0.2,0.1c-0.1,0-0.1-0.1-0.1-0.1l-0.2-2.5l0.2-3.8c0-0.1,0.1-0.1,0.2-0.1c0.1,0,0.1,0.1,0.1,0.1l0.2,3.8
	L8.7,19.8z M9.7,19.8c0,0.1-0.1,0.2-0.2,0.2c-0.1,0-0.2-0.1-0.2-0.2l-0.1-2.5l0.1-4.7c0-0.1,0.1-0.2,0.2-0.2s0.2,0.1,0.2,0.2
	l0.2,4.7L9.7,19.8z M10.6,19.7c0,0.1-0.1,0.2-0.2,0.2s-0.2-0.1-0.2-0.2L10,17.3l0.1-5.1c0-0.1,0.1-0.2,0.2-0.2s0.2,0.1,0.2,0.2
	l0.1,5.1L10.6,19.7z M11.4,19.7c0,0.1-0.1,0.2-0.2,0.2S11,19.9,11,19.7l-0.1-2.4l0.1-5.2c0-0.1,0.1-0.2,0.2-0.2s0.2,0.1,0.2,0.2
	l0.1,5.2L11.4,19.7z M12.5,19.7c0,0.1-0.1,0.3-0.3,0.3s-0.3-0.1-0.3-0.3l-0.1-2.4l0.1-5.1c0-0.1,0.1-0.3,0.3-0.3s0.3,0.1,0.3,0.3
	l0.1,5.1L12.5,19.7z M13.4,19.6c0,0.1-0.1,0.3-0.3,0.3c-0.1,0-0.3-0.1-0.3-0.3l-0.1-2.3l0.1-4.9c0-0.2,0.1-0.3,0.3-0.4
	c0.1,0,0.3,0.1,0.3,0.3l0.1,5L13.4,19.6z M14.3,19.6c0,0.1-0.1,0.3-0.3,0.3c-0.1,0-0.3-0.1-0.3-0.3l-0.1-2.3l0.1-5.9
	c0-0.1,0.1-0.3,0.3-0.3c0.1,0,0.3,0.1,0.3,0.3l0.1,5.9L14.3,19.6z M15.2,19.6c0,0.1-0.1,0.3-0.3,0.3c-0.1,0-0.3-0.1-0.3-0.3
	l-0.1-2.3l0.1-6.4c0-0.1,0.1-0.3,0.2-0.3H15c0.1,0,0.3,0.1,0.3,0.3l0.1,6.4L15.2,19.6z M23.3,20h-7.5c-0.1-0.1-0.3-0.2-0.3-0.4v-9
	c0-0.2,0.1-0.3,0.3-0.4c0.5-0.1,0.9-0.3,1.4-0.3h0.3c2.5,0,4.5,2,4.7,4.5c0.3-0.1,0.7-0.2,1-0.2c1.5,0,2.7,1.3,2.7,2.8
	S24.8,20,23.3,20z"/>
</svg>
