<?xml version="1.0" encoding="utf-8"?>
<!-- Generator: Adobe Illustrator 28.3.0, SVG Export Plug-In . SVG Version: 6.00 Build 0)  -->
<svg version="1.1" id="Layer_1" xmlns="http://www.w3.org/2000/svg" xmlns:xlink="http://www.w3.org/1999/xlink" x="0px" y="0px"
	 viewBox="0 0 30 30" style="enable-background:new 0 0 30 30;" xml:space="preserve">
<style type="text/css">
	.st0{fill:#333333;}
</style>
<path class="st0" d="M15,0C6.7,0,0,6.7,0,15s6.7,15,15,15s15-6.7,15-15S23.3,0,15,0z M23.7,11c0,0.2,0,0.3,0,0.5
	c0,5.3-4.5,11.5-12.8,11.5C8.4,23,6,22.4,4,21.2c0.4,0,0.7,0.1,1.1,0.1c2,0,4-0.6,5.6-1.7c-1.9,0-3.6-1.2-4.2-2.8
	c0.7,0.1,1.4,0.1,2-0.1c-2.1-0.4-3.6-2-3.6-4c0,0,0,0,0-0.1c0.6,0.3,1.3,0.5,2,0.5c-2-1.2-2.6-3.5-1.4-5.4c2.3,2.5,5.7,4.1,9.3,4.2
	C14.4,10.5,14.9,9,16.1,8c1.8-1.5,4.7-1.5,6.4,0.2c1-0.2,2-0.5,2.9-1c-0.3,0.9-1,1.7-2,2.2c0.9-0.1,1.8-0.3,2.6-0.6
	C25.4,9.7,24.6,10.4,23.7,11z"/>
</svg>
