<?xml version="1.0" encoding="utf-8"?>
<!-- Generator: Adobe Illustrator 28.3.0, SVG Export Plug-In . SVG Version: 6.00 Build 0)  -->
<svg version="1.1" id="Layer_1" xmlns="http://www.w3.org/2000/svg" xmlns:xlink="http://www.w3.org/1999/xlink" x="0px" y="0px"
	 viewBox="0 0 30 30" style="enable-background:new 0 0 30 30;" xml:space="preserve">
<style type="text/css">
	.st0{fill:#333333;}
</style>
<path class="st0" d="M25,0H5C2.2,0,0,2.2,0,5v20c0,2.8,2.2,5,5,5h20c2.8,0,5-2.2,5-5V5C30,2.2,27.8,0,25,0z M10.8,23L10.8,23H7.3
	V11.6h3.5V23z M9,10.1c-1.1,0-2-0.9-2-2s0.9-2,2-2s2,0.9,2,2C11.1,9.2,10.2,10.1,9,10.1z M24,23h-3.5v-5.5c0-1.3,0-3-1.8-3
	s-2.1,1.4-2.1,2.9V23H13V11.6h3.4v1.6l0,0c0.5-0.9,1.6-1.8,3.3-1.8c3.6,0,4.2,2.4,4.2,5.4V23H24z"/>
</svg>
