<?xml version="1.0" encoding="UTF-8"?>
<svg id="Layer_1" xmlns="http://www.w3.org/2000/svg" version="1.1" viewBox="0 0 30 30">
  <!-- Generator: Adobe Illustrator 30.1.0, SVG Export Plug-In . SVG Version: 2.1.1 Build 136)  -->
  <defs>
    <style>
      .st0 {
        fill: #333;
      }
    </style>
  </defs>
  <path class="st0" d="M15,28.3c-1.1-.9-2.3-1.5-3.5-2s-2.6-.7-4-.7-1.9.1-2.8.4-1.8.6-2.6,1.1c-.5.2-.9.2-1.4,0s-.7-.7-.7-1.2V9.3c0-.2,0-.5.2-.7s.3-.4.6-.5c1-.5,2.1-1,3.3-1.2,1.1-.3,2.3-.4,3.5-.4s2.6.2,3.9.5,2.5.9,3.6,1.5v16.5c1.2-.7,2.4-1.3,3.6-1.6s2.6-.5,3.9-.5,1.6,0,2.4.2,1.6.3,2.4.6V7.3c.3.1.7.2,1,.4s.7.3,1,.5c.2.1.4.3.6.5s.2.5.2.7v16.4c0,.5-.2.9-.7,1.2s-.9.3-1.4,0c-.8-.5-1.7-.8-2.6-1.1s-1.9-.4-2.8-.4c-1.4,0-2.7.2-4,.7s-2.5,1.1-3.5,2ZM17.7,21.5v-13l6.8-6.8v13.6l-6.8,6.1ZM12.3,23.7v-13.5c-.8-.3-1.5-.6-2.3-.7s-1.6-.3-2.4-.3-1.7,0-2.5.2-1.6.4-2.3.7v13.5c.8-.3,1.6-.5,2.4-.6s1.6-.2,2.4-.2,1.6,0,2.4.2,1.6.4,2.4.6ZM12.3,23.7v-13.5,13.5Z"/>
</svg>