<?xml version="1.0" encoding="utf-8"?>
<!-- Generator: Adobe Illustrator 28.3.0, SVG Export Plug-In . SVG Version: 6.00 Build 0)  -->
<svg version="1.1" id="Layer_1" xmlns="http://www.w3.org/2000/svg" xmlns:xlink="http://www.w3.org/1999/xlink" x="0px" y="0px"
	 viewBox="0 0 30 30" style="enable-background:new 0 0 30 30;" xml:space="preserve">
<style type="text/css">
	.st0{fill:#333333;}
</style>
<path class="st0" d="M15,0C6.7,0,0,6.7,0,15s6.7,15,15,15s15-6.7,15-15S23.3,0,15,0z M21.1,22c-0.3,0-0.4-0.1-0.6-0.2
	c-3.8-2.3-8.2-2.4-12.5-1.5c-0.2,0.1-0.5,0.2-0.7,0.2c-0.6,0-1-0.5-1-1c0-0.6,0.4-0.9,0.8-1c5-1.1,10-1,14.3,1.6
	c0.4,0.2,0.6,0.4,0.6,1C22,21.7,21.6,22,21.1,22z M22.7,18.1c-0.3,0-0.5-0.1-0.7-0.3c-3.8-2.2-9.4-3.1-14.4-1.8
	c-0.3,0.1-0.4,0.2-0.7,0.2c-0.6,0-1.2-0.5-1.2-1.2c0-0.6,0.3-1.1,0.9-1.3c1.7-0.5,3.4-0.8,5.9-0.8c3.9,0,7.7,1,10.7,2.8
	c0.5,0.3,0.7,0.7,0.7,1.2C23.9,17.5,23.4,18.1,22.7,18.1z M24.6,13.5c-0.3,0-0.5-0.1-0.8-0.2c-4.3-2.6-12-3.2-17-1.8
	c-0.2,0.1-0.5,0.2-0.8,0.2c-0.8,0-1.4-0.6-1.4-1.4c0-0.8,0.5-1.3,1.1-1.4C7.8,8.3,10.2,8,12.8,8c4.4,0,9,0.9,12.4,2.9
	C25.7,11,26,11.3,26,12C26,12.9,25.3,13.5,24.6,13.5z"/>
</svg>
